<?xml version="1.0" standalone="no"?>
<!DOCTYPE svg PUBLIC "-//W3C//DTD SVG 20010904//EN"
 "http://www.w3.org/TR/2001/REC-SVG-20010904/DTD/svg10.dtd">
<svg version="1.0" xmlns="http://www.w3.org/2000/svg"
 width="2048.000000pt" height="2048.000000pt" viewBox="0 0 2048.000000 2048.000000"
 preserveAspectRatio="xMidYMid meet">

<g transform="translate(0.000000,2048.000000) scale(0.100000,-0.100000)"
fill="#000000" stroke="none">
<path d="M10162 13560 c-34 -15 -47 -29 -63 -65 -26 -59 -18 -102 29 -152 l37
-38 3 -404 c2 -251 -1 -408 -7 -414 -6 -6 -59 37 -149 123 -138 131 -140 133
-135 170 11 82 -54 154 -139 154 -58 0 -95 -24 -121 -77 -48 -96 47 -216 150
-191 22 6 41 -10 159 -127 74 -74 134 -139 134 -146 0 -10 -87 -13 -414 -13
l-414 0 -39 39 c-51 51 -94 60 -157 32 -78 -34 -105 -127 -59 -199 50 -79 176
-81 234 -3 l23 31 397 0 c219 0 404 -3 413 -6 9 -3 16 -11 16 -17 0 -6 -59
-70 -132 -143 l-131 -133 -41 5 c-109 14 -188 -101 -140 -202 64 -134 274 -71
261 79 l-4 48 131 125 c72 68 138 123 146 122 13 -3 15 -32 15 -188 0 -102 1
-319 3 -482 l2 -298 55 0 54 0 0 481 c-1 334 2 484 10 492 8 8 48 -27 145
-124 l134 -134 0 -53 c0 -60 18 -94 65 -122 90 -55 208 10 209 116 2 80 -61
139 -148 139 l-54 0 -130 130 c-71 71 -130 135 -130 141 0 7 7 15 16 18 9 3
195 6 414 6 l399 0 21 -30 c72 -102 233 -66 256 56 8 43 -25 113 -65 137 -61
36 -179 10 -196 -43 -6 -19 -19 -20 -413 -20 -236 0 -413 4 -422 10 -12 7 13
37 120 145 129 130 136 136 168 130 47 -9 96 10 132 51 25 29 30 43 30 86 0
45 -4 54 -37 88 -50 49 -97 58 -158 31 -55 -24 -88 -83 -79 -141 5 -34 1 -39
-133 -172 -120 -119 -136 -138 -121 -147 25 -15 66 -83 68 -112 5 -61 -1 -81
-41 -124 -82 -89 -177 -83 -249 17 -74 102 3 238 136 238 l54 0 0 418 0 419
25 13 c61 33 72 146 19 201 -24 25 -78 49 -109 49 -5 0 -29 -9 -53 -20z"/>
<path d="M9386 11079 l-26 -31 0 -529 0 -529 858 0 859 0 7 510 c5 429 4 515
-8 543 -29 71 28 67 -862 67 l-802 0 -26 -31z m1589 -266 c4 -109 5 -314 4
-456 l-4 -257 -755 2 -755 3 3 445 c1 245 2 448 2 453 0 4 337 7 749 7 l748 0
8 -197z"/>
<path d="M9150 9894 c0 -37 5 -51 29 -75 l29 -29 1012 0 1012 0 29 30 c25 25
30 36 27 71 l-3 41 -372 5 -372 4 -22 -25 -23 -26 -276 0 -277 0 -23 25 -23
25 -374 0 -373 0 0 -46z"/>
<path d="M11970 8984 c-5 -12 -56 -125 -114 -252 -58 -126 -130 -285 -160
-353 -30 -68 -86 -195 -125 -282 -39 -87 -71 -162 -71 -165 0 -4 48 -6 106 -4
l106 3 37 83 c21 45 44 99 52 119 l13 37 262 0 262 0 32 -77 c18 -43 40 -97
50 -120 l19 -43 110 0 110 0 -18 43 c-74 170 -284 644 -351 792 -45 99 -88
195 -96 213 l-15 33 -100 -2 c-94 -2 -101 -4 -109 -25z m157 -319 c23 -55 64
-151 92 -212 l50 -113 -189 0 c-105 0 -190 2 -190 5 0 3 35 85 79 184 43 98
85 194 92 215 7 20 16 33 19 28 4 -4 25 -52 47 -107z"/>
<path d="M14333 9000 l-112 -5 70 -115 c144 -234 283 -456 316 -505 l33 -50 0
-200 0 -200 105 3 105 3 0 197 0 196 122 196 c67 107 158 254 203 325 45 72
85 136 89 143 6 9 -18 12 -106 12 l-113 0 -112 -183 c-61 -100 -126 -208 -145
-239 -18 -32 -35 -58 -38 -58 -3 0 -70 108 -149 240 -79 132 -146 242 -150
243 -3 1 -56 0 -118 -3z"/>
<path d="M5230 8465 l0 -535 395 0 396 0 -3 93 -3 92 -287 -4 -288 -3 0 446 0
446 -105 0 -105 0 0 -535z"/>
<path d="M6380 8652 c0 -370 4 -413 51 -504 53 -104 172 -191 297 -217 73 -15
216 -14 279 3 168 45 287 182 313 361 5 39 10 213 10 388 l0 317 -104 0 -105
0 -3 -352 c-4 -392 -3 -390 -74 -468 -42 -46 -103 -72 -176 -74 -116 -3 -206
50 -249 146 -24 52 -24 59 -27 401 l-3 347 -104 0 -105 0 0 -348z"/>
<path d="M7820 8465 l0 -535 95 0 95 0 1 353 c0 224 4 347 10 337 16 -26 172
-289 247 -415 l71 -120 44 3 c37 3 46 9 62 35 10 18 83 142 164 277 l146 244
3 -357 2 -357 95 0 95 0 0 535 0 535 -98 0 -98 0 -106 -182 c-58 -101 -138
-241 -178 -313 -40 -71 -76 -134 -80 -138 -4 -5 -51 67 -104 160 -53 92 -136
236 -185 318 l-87 150 -97 3 -97 3 0 -536z"/>
<path d="M9460 8465 l0 -535 107 0 106 0 -6 128 c-4 70 -7 310 -7 535 l0 407
-100 0 -100 0 0 -535z"/>
<path d="M10170 8465 l0 -535 103 0 102 0 -3 332 c-1 183 0 343 3 356 5 20 16
10 88 -81 45 -58 164 -204 264 -326 101 -122 193 -235 205 -251 21 -29 24 -30
105 -30 l83 0 0 535 0 535 -100 0 -100 0 -2 -351 -3 -350 -195 243 c-107 133
-235 291 -283 350 l-88 108 -89 0 -90 0 0 -535z"/>
<path d="M13030 8465 l0 -535 105 0 105 0 2 168 3 167 120 3 121 3 108 -157
c59 -86 110 -163 113 -170 3 -9 38 -14 129 -16 68 -2 124 -1 124 1 0 2 -13 20
-28 40 -33 42 -232 331 -232 336 0 2 20 13 44 23 63 28 121 85 153 150 25 51
28 67 28 162 0 88 -4 113 -23 155 -44 95 -127 158 -249 190 -44 12 -122 15
-340 15 l-283 0 0 -535z m591 328 c85 -38 125 -154 81 -239 -45 -88 -89 -105
-299 -112 l-163 -5 0 193 0 192 168 -4 c143 -3 174 -7 213 -25z"/>
<path d="M5313 7262 l-33 -3 0 -310 0 -309 128 0 c214 0 319 35 387 128 42 59
60 119 58 200 -4 164 -128 282 -303 289 -179 7 -207 8 -237 5z m278 -102 c111
-31 179 -147 150 -257 -29 -108 -109 -160 -263 -170 l-98 -6 0 221 0 222 88 0
c48 0 103 -5 123 -10z"/>
<path d="M6316 7137 c-73 -161 -216 -489 -216 -494 0 -2 24 -3 53 -3 l52 0 30
75 30 75 158 -2 159 -3 27 -70 26 -70 58 -3 c31 -2 57 -1 57 2 0 4 -141 327
-237 544 l-37 82 -51 0 -50 0 -59 -133z m163 -114 c28 -66 51 -126 51 -132 0
-7 -37 -11 -111 -11 -61 0 -109 4 -107 9 13 36 112 260 114 258 1 -1 25 -57
53 -124z"/>
<path d="M6920 7225 l0 -44 98 -3 97 -3 3 -267 2 -268 50 0 50 0 2 268 3 267
98 3 97 3 0 44 0 45 -250 0 -250 0 0 -45z"/>
<path d="M7833 7133 c-140 -313 -205 -459 -210 -476 -5 -16 0 -18 48 -15 l54
3 29 73 30 72 157 0 157 0 28 -71 c15 -39 33 -73 40 -76 6 -2 32 -3 57 -1 l46
3 -29 65 c-23 54 -167 383 -229 522 -15 36 -18 38 -66 38 l-51 0 -61 -137z
m165 -116 c29 -67 52 -126 52 -130 0 -4 -49 -7 -110 -7 -60 0 -110 3 -110 6 0
13 105 254 110 254 3 0 29 -55 58 -123z"/>
<path d="M8839 7242 c-122 -63 -133 -203 -22 -278 17 -11 64 -31 104 -43 148
-45 169 -60 169 -120 0 -44 -46 -71 -122 -71 -47 0 -70 7 -132 39 l-75 39 -21
-36 c-12 -19 -19 -41 -16 -47 2 -7 34 -28 71 -46 76 -37 188 -50 263 -30 118
32 177 170 111 263 -22 31 -112 76 -207 103 -75 22 -112 53 -112 93 0 48 31
67 109 67 54 0 77 -6 120 -28 30 -15 55 -26 56 -25 1 2 11 20 23 40 l21 38
-24 16 c-93 61 -228 72 -316 26z"/>
<path d="M9647 7250 c-97 -38 -162 -110 -192 -215 -33 -114 4 -236 97 -320 65
-58 132 -79 237 -73 98 6 162 34 223 99 57 61 83 129 82 221 0 131 -90 251
-216 292 -67 21 -171 20 -231 -4z m190 -85 c59 -18 123 -80 143 -139 33 -102
-15 -221 -109 -268 -205 -104 -404 117 -286 318 28 48 55 69 113 90 49 17 78
17 139 -1z"/>
<path d="M11108 7262 l-48 -3 0 -213 0 -213 30 -60 c37 -74 87 -112 172 -129
103 -21 223 14 273 80 49 64 55 102 55 331 l0 213 -47 -1 -48 -2 -5 -205 c-6
-227 -13 -260 -73 -302 -45 -32 -122 -35 -171 -6 -74 43 -80 65 -86 303 l-5
210 -47 -3z"/>
<path d="M11817 7228 c-3 -23 -3 -46 0 -51 3 -4 39 -8 81 -7 43 1 87 1 100 1
l22 -1 0 -265 0 -265 50 0 50 0 0 271 0 271 100 -4 100 -3 0 48 0 47 -249 0
-248 0 -6 -42z"/>
<path d="M12608 7263 l-48 -4 0 -310 0 -309 50 0 50 0 0 315 c0 173 -1 314 -2
313 -2 -1 -24 -3 -50 -5z"/>
<path d="M13164 7250 c-255 -83 -289 -440 -56 -578 44 -25 55 -27 157 -27 100
0 115 3 167 28 61 30 105 74 140 140 19 35 23 58 23 137 0 84 -3 101 -27 145
-57 108 -145 163 -271 171 -54 3 -87 -1 -133 -16z m213 -98 c78 -41 117 -107
118 -203 0 -89 -36 -151 -115 -192 -48 -25 -63 -28 -122 -25 -56 3 -74 9 -110
35 -94 68 -122 203 -62 299 16 26 41 56 55 66 67 50 161 58 236 20z"/>
<path d="M14893 7260 c-106 -22 -163 -84 -163 -179 0 -83 50 -126 195 -170
107 -32 145 -52 151 -77 17 -69 -25 -108 -117 -107 -51 1 -75 7 -132 37 -39
20 -71 35 -72 33 -1 -1 -12 -17 -25 -36 l-23 -34 24 -18 c94 -73 268 -96 362
-48 86 45 121 141 81 225 -23 49 -58 69 -181 110 -141 46 -155 55 -151 101 7
78 110 101 223 49 31 -14 59 -26 60 -26 2 0 13 16 24 36 27 45 19 56 -52 82
-64 24 -149 33 -204 22z"/>
<path d="M10380 6950 l0 -310 215 0 215 0 0 45 0 45 -165 0 -165 0 0 265 0
265 -50 0 -50 0 0 -310z"/>
<path d="M13880 6950 l0 -310 50 0 50 0 2 212 3 213 139 -170 c77 -94 153
-189 170 -212 27 -39 34 -43 73 -43 l43 0 0 310 0 310 -50 0 -50 0 -2 -212 -3
-213 -63 80 c-35 44 -111 140 -170 212 -107 132 -107 133 -149 133 l-43 0 0
-310z"/>
</g>
</svg>
